<?xml version="1.0" encoding="utf-8"?>
<svg xmlns="http://www.w3.org/2000/svg" id="_x2014__x5F_1" style="enable-background:new 0 0 400 400;" version="1.1" viewBox="0 0 400 400" x="0px" y="0px">
<style type="text/css">
	.st0{fill:#E7E7E7;}
</style>
<g>
	<path class="st0" d="M197,46c-82.8,0-150,67.2-150,150s67.2,150,150,150s150-67.2,150-150S279.8,46,197,46z M197,106&#xA;		c21.6,0,39,17.4,39,39s-17.4,39-39,39s-39-17.4-39-39S175.4,106,197,106z M265.7,286H128.3c-10.2,0-17.4-9.6-15.3-19.2&#xA;		c9-38.4,43.2-66.9,84-66.9s75,28.5,84,66.9C283.1,276.4,275.9,286,265.7,286L265.7,286z"/>
</g>
</svg>