<?xml version="1.0" encoding="UTF-8" standalone="no" ?>
<!DOCTYPE svg PUBLIC "-//W3C//DTD SVG 1.1//EN" "http://www.w3.org/Graphics/SVG/1.1/DTD/svg11.dtd">
<svg xmlns="http://www.w3.org/2000/svg" xmlns:xlink="http://www.w3.org/1999/xlink" version="1.1" width="1080" height="1080" viewBox="0 0 1080 1080" xml:space="preserve">
<desc>Created with Fabric.js 5.2.4</desc>
<defs>
</defs>
<g transform="matrix(1 0 0 1 540 540)" id="091a5589-77b1-47ae-a1da-2d34624b6692"  >
<rect style="stroke: none; stroke-width: 1; stroke-dasharray: none; stroke-linecap: butt; stroke-dashoffset: 0; stroke-linejoin: miter; stroke-miterlimit: 4; fill: rgb(255,255,255); fill-rule: nonzero; opacity: 1; visibility: hidden;" vector-effect="non-scaling-stroke"  x="-540" y="-540" rx="0" ry="0" width="1080" height="1080" />
</g>
<g transform="matrix(1 0 0 1 540 540)" id="c94dd178-70f3-4f0c-a63b-3f99ff54eb95"  >
</g>
<g transform="matrix(2.28 0 0 2.12 540 538.28)"  >
<polygon style="stroke: none; stroke-width: 1; stroke-dasharray: none; stroke-linecap: butt; stroke-dashoffset: 0; stroke-linejoin: miter; stroke-miterlimit: 4; fill: none; fill-rule: evenodd; opacity: 1;" vector-effect="non-scaling-stroke"  points="-10,-10 10,-10 10,10 -10,10 " />
</g>
<g transform="matrix(2.38 0 0 2.12 541.34 538.28)"  >
<path style="stroke: none; stroke-width: 1; stroke-dasharray: none; stroke-linecap: butt; stroke-dashoffset: 0; stroke-linejoin: miter; stroke-miterlimit: 4; fill: rgb(5,132,48); fill-rule: evenodd; opacity: 1;" vector-effect="non-scaling-stroke"  transform=" translate(-12.27, -12)" d="M 19.1128403 2.13649539 C 18.8446736 1.97014114 18.510147 1.95468747 18.2283447 2.09649765 L 15.0648868 3.67822661 L 12.775925 2.15285811 C 12.4704877 1.94923323 12.0732374 1.94923323 11.766891 2.15285811 L 9.48156538 3.67822661 L 6.31810747 2.09649765 C 6.03630518 1.95559651 5.69996052 1.9692321 5.4336119 2.13649539 C 5.16362713 2.30194061 5 2.59374233 5 2.90917908 L 5 21.0899717 C 5 21.4054085 5.16362713 21.6990283 5.43179383 21.8626554 C 5.57724017 21.9535594 5.74268538 21.9990113 5.90903963 21.9990113 C 6.04721366 21.9990113 6.1881148 21.967195 6.31538035 21.9035622 L 9.47883826 20.3218332 L 11.7678001 21.8462927 C 12.0732374 22.0508266 12.4704877 22.0508266 12.776834 21.8462927 L 15.0639778 20.3218332 L 18.2292538 21.9035622 C 18.511056 22.0444633 18.8455826 22.0308277 19.1137493 21.8635644 C 19.381916 21.6999373 19.5455431 21.4063175 19.5455431 21.0908808 L 19.5455431 2.90917908 C 19.5455431 2.59374233 19.381916 2.30194061 19.1137493 2.13649539 L 19.1128403 2.13649539 Z M 14.9994359 10.1814961 L 11.8177972 10.1814961 C 11.5678113 10.1814961 11.3632774 10.38603 11.3632774 10.6360159 C 11.3632774 10.8860018 11.5678113 11.0905358 11.8177972 11.0905358 L 12.7268369 11.0905358 C 13.9813116 11.0905358 14.9994359 12.1104782 14.9994359 13.3631348 C 14.9994359 14.4603457 14.2176619 15.3784757 13.1813567 15.5902819 L 13.1813567 16.5447736 L 11.3632774 16.5447736 L 11.3632774 15.6357339 L 9.54519816 15.6357339 L 9.54519816 13.8176547 L 12.7268369 13.8176547 C 12.9768228 13.8176547 13.1813567 13.6131207 13.1813567 13.3631348 C 13.1813567 13.1131489 12.9768228 12.908615 12.7268369 12.908615 L 11.8177972 12.908615 C 10.5633225 12.908615 9.54519816 11.8886726 9.54519816 10.6360159 C 9.54519816 9.53880511 10.3269722 8.62067508 11.3632774 8.40886885 L 11.3632774 7.45437724 L 13.1813567 7.45437724 L 13.1813567 8.36341687 L 14.9994359 8.36341687 L 14.9994359 10.1814961 Z" stroke-linecap="round" />
</g>
</svg>