<svg width="24%" height="24%" viewBox="0 0 24 24" fill="#058430" version="1.1" xmlns="http://www.w3.org/2000/svg" xmlns:xlink="http://www.w3.org/1999/xlink" fit="" preserveAspectRatio="xMidYMid meet" focusable="false">
    <g stroke="none" stroke-width="1" fill-rule="evenodd">
        <polygon fill="none" opacity="0" points="2 2 22 2 22 22 2 22"></polygon>
        <path d="M19.1128403,2.13649539 C18.8446736,1.97014114 18.510147,1.95468747 18.2283447,2.09649765 L15.0648868,3.67822661 L12.775925,2.15285811 C12.4704877,1.94923323 12.0732374,1.94923323 11.766891,2.15285811 L9.48156538,3.67822661 L6.31810747,2.09649765 C6.03630518,1.95559651 5.69996052,1.9692321 5.4336119,2.13649539 C5.16362713,2.30194061 5,2.59374233 5,2.90917908 L5,21.0899717 C5,21.4054085 5.16362713,21.6990283 5.43179383,21.8626554 C5.57724017,21.9535594 5.74268538,21.9990113 5.90903963,21.9990113 C6.04721366,21.9990113 6.1881148,21.967195 6.31538035,21.9035622 L9.47883826,20.3218332 L11.7678001,21.8462927 C12.0732374,22.0508266 12.4704877,22.0508266 12.776834,21.8462927 L15.0639778,20.3218332 L18.2292538,21.9035622 C18.511056,22.0444633 18.8455826,22.0308277 19.1137493,21.8635644 C19.381916,21.6999373 19.5455431,21.4063175 19.5455431,21.0908808 L19.5455431,2.90917908 C19.5455431,2.59374233 19.381916,2.30194061 19.1137493,2.13649539 L19.1128403,2.13649539 Z M14.9994359,10.1814961 L11.8177972,10.1814961 C11.5678113,10.1814961 11.3632774,10.38603 11.3632774,10.6360159 C11.3632774,10.8860018 11.5678113,11.0905358 11.8177972,11.0905358 L12.7268369,11.0905358 C13.9813116,11.0905358 14.9994359,12.1104782 14.9994359,13.3631348 C14.9994359,14.4603457 14.2176619,15.3784757 13.1813567,15.5902819 L13.1813567,16.5447736 L11.3632774,16.5447736 L11.3632774,15.6357339 L9.54519816,15.6357339 L9.54519816,13.8176547 L12.7268369,13.8176547 C12.9768228,13.8176547 13.1813567,13.6131207 13.1813567,13.3631348 C13.1813567,13.1131489 12.9768228,12.908615 12.7268369,12.908615 L11.8177972,12.908615 C10.5633225,12.908615 9.54519816,11.8886726 9.54519816,10.6360159 C9.54519816,9.53880511 10.3269722,8.62067508 11.3632774,8.40886885 L11.3632774,7.45437724 L13.1813567,7.45437724 L13.1813567,8.36341687 L14.9994359,8.36341687 L14.9994359,10.1814961 Z"></path>
    </g>
</svg>